# xmcd
#
# Track frame offsets: 
#        150
#        16616
#        31238
#        49511
#        60046
#        75919
#        96130
#        110354
#        138785
#        152812
#        175539
#        184651
#        204470
#        220896
#
# Disc length: 3122 seconds
#
# Revision: 0
# Processed by: cddbd v1.4PL0 Copyright (c) Steve Scherf et al.
# Submitted via: ExactAudioCopy v0.90b4
#
DISCID=990c300e
DTITLE=Hansa - Hansa bluus 1994-2001
DYEAR=2001
DGENRE=Blues
TTITLE0=Din elaka mamma
TTITLE1=Railroad bill
TTITLE2=Social fason
TTITLE3=Jimmy brown the newsboy
TTITLE4=Köpte mig en biljävel
TTITLE5=Till en bonde
TTITLE6=Sussanna om sussanna
TTITLE7=Jerker ekholm blues
TTITLE8=Utjämning
TTITLE9=Till kumla
TTITLE10=Slå sönder Den fula tv-n
TTITLE11=Free-form-harmonica
TTITLE12=Där man bakar brödet
TTITLE13=Jag vill gärna ta och spy
EXTD=
EXTT0=
EXTT1=
EXTT2=
EXTT3=
EXTT4=
EXTT5=
EXTT6=
EXTT7=
EXTT8=
EXTT9=
EXTT10=
EXTT11=
EXTT12=
EXTT13=
PLAYORDER=
